<svg xmlns="http://www.w3.org/2000/svg" viewBox="0 0 32 32"><rect width="32" height="32" rx="9" fill="#293d32"/><g transform="translate(5 5) scale(.92)" fill="none" stroke="#f5f3ee" stroke-width="1.8" stroke-linecap="round" stroke-linejoin="round"><path d="M7 6h10a5 5 0 0 1 4.7 4l1 6.5c.4 2.8-2.5 4-4.3 1.9L16 15H8l-2.4 3.4C3.8 20.5.9 19.3 1.3 16.5l1-6.5A5 5 0 0 1 7 6ZM10 6V3h4v3M7 9v5M4.5 11.5h5"/><circle cx="17" cy="10" r=".8" fill="currentColor" stroke="none"/><circle cx="19" cy="12.5" r=".8" fill="currentColor" stroke="none"/></g></svg>